<?xml version="1.0" encoding="UTF-8" standalone="no"?>
<!-- Created with Inkscape (http://www.inkscape.org/) -->

<svg viewBox="0 0 16 16">
<path style="fill:#e0e0e0"
d="M 6.5 0 C 6.223 0 6 0.223 6 0.5 L 6 1.2929688 A 7 7 0 0 0 1 8 A 7 7 0 0 0 8 15 A 7 7 0 0 0 15 8 A 7 7 0 0 0 10 1.2929688 L 10 0.5 C 10 0.223 9.777 0 9.5 0 L 6.5 0 z M 8 2.5 A 5.5 5.5 0 0 1 13.5 8 A 5.5 5.5 0 0 1 8 13.5 A 5.5 5.5 0 0 1 2.5 8 A 5.5 5.5 0 0 1 8 2.5 z M 8 3 C 7.446 3 7 3.446 7 4 L 7 8 C 7 8.554 7.446 9 8 9 L 11 9 C 11.554 9 12 8.554 12 8 C 12 7.446 11.554 7 11 7 L 9 7 L 9 4 C 9 3.446 8.554 3 8 3 z " />
</svg>
