P3
4 1
15
0 0 0
11 0 15
15 11 0
15 15 15
